<?xml version="1.0" standalone="no"?>
<!DOCTYPE svg PUBLIC "-//W3C//DTD SVG 20010904//EN"
 "http://www.w3.org/TR/2001/REC-SVG-20010904/DTD/svg10.dtd">
<svg version="1.0" xmlns="http://www.w3.org/2000/svg"
 width="678.000000pt" height="667.000000pt" viewBox="0 0 678.000000 667.000000"
 preserveAspectRatio="xMidYMid meet">

<g transform="translate(0.000000,667.000000) scale(0.100000,-0.100000)"
fill="#000000" stroke="none">
<path d="M5280 6581 c-14 -5 -39 -15 -55 -24 -49 -26 -3380 -3366 -3399 -3409
-19 -42 -48 -172 -210 -940 -64 -301 -116 -566 -116 -590 0 -61 28 -109 80
-135 24 -13 56 -23 70 -23 13 0 358 70 765 156 560 118 751 162 786 180 31 17
575 555 1721 1702 1612 1613 1677 1679 1697 1735 26 72 26 75 -4 210 -30 132
-33 142 -98 272 -167 337 -418 590 -752 757 -130 66 -189 86 -305 103 -104 16
-142 17 -180 6z m-3057 -3722 c217 -73 466 -290 610 -532 40 -69 103 -256 89
-268 -4 -3 -122 -30 -262 -59 -140 -29 -260 -55 -266 -57 -6 -2 -19 18 -29 44
-56 153 -189 285 -331 330 -30 9 -54 22 -54 29 0 6 25 128 55 269 30 142 55
260 55 262 0 10 79 0 133 -18z"/>
<path d="M405 5396 c-115 -36 -198 -108 -248 -214 l-32 -67 0 -2365 0 -2365
24 -60 c44 -110 166 -209 289 -235 31 -7 844 -9 2377 -8 l2330 3 58 23 c82 33
176 123 213 204 l29 63 3 1425 2 1425 -395 -395 -395 -395 0 -782 0 -783
-1875 0 -1875 0 0 1875 0 1875 783 0 783 0 394 395 394 395 -1410 -1 c-1109 0
-1418 -3 -1449 -13z"/>
</g>
</svg>
