<?xml version="1.0" encoding="UTF-8" standalone="no"?>
<!DOCTYPE svg PUBLIC "-//W3C//DTD SVG 20010904//EN" "http://www.w3.org/TR/2001/REC-SVG-20010904/DTD/svg10.dtd">
<svg version="1.0" xmlns="http://www.w3.org/2000/svg" width="586.000000pt" height="524.000000pt" viewBox="0 0 586.000000 524.000000" preserveAspectRatio="xMidYMid meet">

<g transform="translate(0.000000,524.000000) scale(0.100000,-0.100000)" stroke="none" fill="#ed3333">
<path d="M4040 5080 c-24 -36 -46 -67 -50 -70 -3 -3 -31 -41 -61 -85 -50 -73 -94 -135 -297 -420 -35 -49 -83 -119 -108 -155 l-44 -66 15 -49 c31 -100 44 -141 60 -200 9 -33 21 -71 25 -85 4 -14 13 -45 20 -70 7 -25 16 -56 20 -70 5 -14 18 -59 30 -100 12 -41 26 -86 30 -100 4 -14 13 -45 20 -70 7 -25 20 -70 30 -100 10 -30 23 -75 30 -100 7 -25 20 -72 30 -105 10 -33 35 -118 55 -190 20 -71 40 -141 45 -155 8 -26 38 -127 72 -245 11 -38 24 -81 29 -95 9 -28 36 -122 75 -255 14 -49 41 -144 61 -210 19 -66 39 -133 43 -150 5 -16 12 -40 15 -52 9 -28 11 -27 -140 -53 -123 -22 -182 -32 -282 -50 -32 -6 -85 -16 -118 -21 -33 -6 -82 -15 -110 -19 -27 -5 -79 -14 -115 -20 -36 -7 -87 -16 -115 -21 -27 -5 -77 -13 -110 -19 -33 -5 -82 -14 -110 -19 -66 -13 -191 -36 -450 -81 -60 -11 -125 -22 -142 -26 -61 -12 -83 -47 356 566 171 239 317 444 325 455 156 215 385 542 385 550 1 11 -37 9 -116 -5 -29 -6 -77 -14 -105 -19 -29 -5 -80 -14 -113 -20 -33 -6 -150 -27 -260 -46 -486 -84 -430 -69 -479 -135 -22 -31 -60 -83 -83 -116 -24 -32 -96 -133 -161 -224 -65 -91 -185 -259 -267 -375 -82 -115 -167 -235 -189 -266 -174 -241 -384 -535 -454 -636 -83 -120 -371 -522 -402 -563 -50 -65 -227 -316 -240 -339 -12 -23 -11 -23 32 -16 47 7 128 21 198 35 48 9 134 24 228 40 31 5 107 18 167 29 124 23 322 58 405 71 30 5 107 19 170 30 63 12 140 25 170 30 30 5 81 14 113 20 31 5 82 15 112 20 30 6 81 15 113 20 31 6 82 15 112 20 30 5 80 14 110 19 30 6 107 19 170 30 63 11 189 34 280 50 152 27 235 42 485 86 50 9 113 20 140 25 120 22 294 53 340 61 133 23 184 31 225 39 25 5 73 13 108 19 34 6 88 15 120 21 31 5 82 15 112 20 30 6 80 15 110 20 30 5 96 16 145 25 50 9 152 27 227 40 76 13 142 26 147 29 10 6 4 34 -29 141 -12 39 -24 79 -27 90 -3 11 -13 47 -23 80 -10 33 -26 87 -35 120 -10 33 -25 87 -35 120 -10 33 -23 80 -30 105 -7 25 -16 56 -20 70 -4 14 -13 45 -20 70 -7 25 -19 65 -27 90 -8 25 -24 77 -35 115 -10 39 -23 84 -28 100 -4 17 -29 102 -55 190 -26 88 -56 190 -66 227 -68 237 -94 329 -101 348 -3 8 -11 35 -18 60 -22 77 -32 114 -41 140 -5 14 -15 50 -23 80 -16 58 -57 201 -126 435 -23 77 -50 172 -61 210 -11 39 -24 84 -29 100 -5 17 -16 59 -25 95 -10 36 -21 69 -26 75 -5 5 -9 16 -9 24 0 9 -9 45 -20 81 -29 96 -70 238 -85 295 -8 28 -23 82 -35 120 -23 76 -29 94 -58 200 -11 39 -27 90 -35 115 -9 25 -17 54 -19 65 -3 16 -13 6 -48 -45z"/>
</g>
</svg>